<?xml version="1.0" standalone="no"?><!DOCTYPE svg PUBLIC "-//W3C//DTD SVG 1.1//EN" "http://www.w3.org/Graphics/SVG/1.1/DTD/svg11.dtd"><svg t="1707227598278" class="icon" viewBox="0 0 1615 1024" version="1.1" xmlns="http://www.w3.org/2000/svg" p-id="4234" xmlns:xlink="http://www.w3.org/1999/xlink" width="50.46875" height="32"><path d="M1612.25656 498.10221A884.95335 884.95335 0 0 0 807.753514 0.041688 884.95335 884.95335 0 0 0 3.250469 498.10221a32.911488 32.911488 0 0 0 0 28.52329A884.95335 884.95335 0 0 0 807.753514 1023.954655a884.95335 884.95335 0 0 0 804.503046-498.060522 32.911488 32.911488 0 0 0 0-27.791923z m-804.503046 365.683203A357.638172 357.638172 0 0 1 442.070312 511.998172a357.638172 357.638172 0 0 1 365.683202-353.249974A357.638172 357.638172 0 0 1 1173.436717 511.998172a358.369539 358.369539 0 0 1-365.683203 353.249973z m0-537.554308A184.304334 184.304334 0 1 0 997.177413 511.998172 187.2298 187.2298 0 0 0 807.753514 327.693837z" p-id="4235" fill="#2c2c2c"></path></svg>