<?xml version="1.0" standalone="no"?><!DOCTYPE svg PUBLIC "-//W3C//DTD SVG 1.1//EN" "http://www.w3.org/Graphics/SVG/1.1/DTD/svg11.dtd"><svg t="1707227161926" class="icon" viewBox="0 0 1280 1024" version="1.1" xmlns="http://www.w3.org/2000/svg" p-id="7110" xmlns:xlink="http://www.w3.org/1999/xlink" width="40" height="32"><path d="M511.2 770.4C462.8 833.2 403 864 344 864s-118.8-30.8-167.2-93.6c-18.2-23.8-34.2-51.4-47-82.4 18.4 10.2 39.6 16 62.2 16 70.6 0 128-57.4 128-128s-57.4-128-128-128c-38 0-72.2 16.6-95.6 42.8 4-95.6 35.4-178.6 80.4-237.2C225.2 190.8 285 160 344 160s118.8 30.8 167.2 93.6c48.2 62.8 80.8 154 80.8 258.4s-32.6 195.4-80.8 258.4zM640 283.6C580 152.2 470 64 344 64 154 64 0 264.6 0 512s154 448 344 448c126 0 236-88.2 296-219.6C700 871.8 810 960 936 960c190 0 344-200.6 344-448S1126 64 936 64c-126 0-236 88.2-296 219.6z m85.6 413.2c13.2 4.6 27.4 7.2 42.4 7.2 70.6 0 128-57.4 128-128s-57.4-128-128-128c-29.6 0-57 10-78.6 27 6.6-88.8 37-166 79.6-221.2C817.2 190.8 877 160 936 160s118.8 30.8 167.2 93.6c48.2 62.8 80.8 154 80.8 258.4s-32.6 195.4-80.8 258.4C1054.8 833.2 995 864 936 864s-118.8-30.8-167.2-93.6c-16.4-21.4-31-46.2-43.2-73.4z" p-id="7111" fill="#2c2c2c"></path></svg>