<?xml version="1.0" encoding="UTF-8" standalone="no"?>
<svg
   xmlns:dc="http://purl.org/dc/elements/1.1/"
   xmlns:cc="http://creativecommons.org/ns#"
   xmlns:rdf="http://www.w3.org/1999/02/22-rdf-syntax-ns#"
   xmlns:svg="http://www.w3.org/2000/svg"
   xmlns="http://www.w3.org/2000/svg"
   viewBox="0 0 1058.2667 1058.2667"
   height="1058.2667"
   width="1058.2667"
   xml:space="preserve"
   id="svg2"
   version="1.1"><metadata
     id="metadata8"><rdf:RDF><cc:Work
         rdf:about=""><dc:format>image/svg+xml</dc:format><dc:type
           rdf:resource="http://purl.org/dc/dcmitype/StillImage" /></cc:Work></rdf:RDF></metadata><defs
     id="defs6"><clipPath
       id="clipPath18"
       clipPathUnits="userSpaceOnUse"><path
         id="path16"
         d="M 0,793.7 H 793.7 V 0 H 0 Z" /></clipPath></defs><g
     transform="matrix(1.3333333,0,0,-1.3333333,0,1058.2667)"
     id="g10"><g
       id="g12"><g
         clip-path="url(#clipPath18)"
         id="g14"><g
           transform="translate(288.0938,342.4863)"
           id="g20"><path
             id="path22"
             style="fill:#007dc2;fill-opacity:1;fill-rule:evenodd;stroke:none"
             d="m 0,0 c 0,0 -1.13,-0.176 -1.44,5.361 0,2.143 1.85,3.034 1.85,3.034 C 5.35,8.645 6.714,6.549 6.714,6.549 6.918,5.879 7.247,5.373 7.495,4.756 7.548,3.322 7.049,2.109 6.399,1.18 6.399,1.18 4.057,-0.461 0,0" /></g><g
           transform="translate(320.9307,335.7598)"
           id="g24"><path
             id="path26"
             style="fill:#007dc2;fill-opacity:1;fill-rule:nonzero;stroke:none"
             d="M 0,0 C 2.54,0.338 2.508,-3.545 2.508,-3.545 L 2.157,-16.307 1.776,-21.01 c -0.212,-2.461 0.329,-4.621 0.413,-6.609 0.093,-2.324 0.101,-5.119 -0.064,-7.555 -0.102,-1.717 0.209,-3.551 -0.479,-5.187 -1.739,0.361 -2.818,1.707 -4.084,2.33 0,-0.11 -0.017,-0.098 0.155,-0.235 -0.402,-0.211 -0.752,0.352 -1.137,0.184 0.232,-0.281 0.571,-0.475 0.857,-0.658 -0.074,-0.143 -0.209,-0.192 -0.176,-0.412 0.499,-0.594 1.26,-0.932 1.538,-1.737 -0.324,0.059 -0.49,0.069 -0.663,-0.111 0.282,-0.771 1.102,-1.002 1.434,-1.717 -0.557,0.248 -0.959,1.16 -1.539,0.996 0.199,-1.029 1.683,-1.074 1.482,-2.3 0.672,-0.76 0.948,-1.577 1.676,-2.204 0,0 -0.288,-2.07 2.129,-1.736 2.089,0.941 2.563,3.148 2.563,3.148 0,0 0.379,3.116 -0.412,11.604 1.077,5.045 -0.246,10.59 -0.246,10.59 0,0 -0.028,2.39 0.306,3.906 C 6.38,-7.668 5.881,-4.029 5.881,-4.029 7.406,1.402 5.342,2.402 5.342,2.402 3.56,3.236 2.578,2.633 1.482,2.473 c 0.623,2.302 7.104,6.789 7.104,6.789 9.07,3.98 4.359,6.474 4.359,6.474 0,0 -3.199,2.235 -8.855,-3.578 0,0 -12.82,-8.642 -17.245,-12.652 0,0 -6.033,-5.471 -11.975,-13.949 0,0 -4.058,-5.873 -4.626,-8.883 -0.293,-1.445 -1.543,-5.643 -2.562,-8.936 -0.475,0.895 -0.581,1.889 -0.552,3.037 0,0 1.144,13.483 2.294,15.567 0,0 5.777,3.336 3.195,8.051 0,0 -0.315,0.445 -1.052,0.769 -1.276,0.596 -4.233,1.606 -4.73,1.606 -0.867,0.089 -1.247,-0.737 -1.994,-1.264 0,0 -1.223,-1.869 0.261,-6.568 0,-0.043 0.01,-0.094 0.032,-0.147 0.196,-0.625 -1.728,-15.693 -1.728,-15.693 -2.294,-16.36 4.937,-12.325 4.937,-12.325 1.972,1.971 3.943,3.821 4.722,6.278 0.245,3.631 0.407,7.91 0.579,8.578 0.34,5.678 11.188,21.904 24.965,27.728 -3.446,-5.779 -6.603,-11.97 -9.717,-18.126 0,0 -2.505,-2.741 -2.164,-6.319 0,0 0.438,-1.389 2.15,-1.174 2.53,1.258 2.587,3.326 2.587,3.326 0.326,3.375 1.378,3.69 1.378,3.69 0.61,-3.863 3.462,-4.49 3.462,-4.49 3.977,-0.561 3.576,4.388 3.576,4.388 -0.345,0.907 -0.345,1.881 -0.555,2.725 -0.401,1.578 -0.304,2.834 -0.304,2.834 -0.225,1.648 -0.521,0.896 -0.715,1.379 -0.245,0.689 0.109,1.517 -0.173,2.082 -0.386,0.117 -0.335,-0.484 -0.574,-0.307 -0.166,0.588 0.277,1.182 0.155,1.676 -0.513,-1.572 -0.723,-3.312 -1.497,-4.613 -0.764,0.297 -1.349,0 -1.944,-0.145 0.921,1.893 2,3.323 2.985,5.477 1.048,1.656 1.553,3.721 2.788,4.885 0,0 0.264,0.195 -0.049,-0.643" /></g><g
           transform="translate(363.2529,331.2637)"
           id="g28"><path
             id="path30"
             style="fill:#007dc2;fill-opacity:1;fill-rule:evenodd;stroke:none"
             d="m 0,0 c -0.213,-2.598 -1.637,-3.213 -1.637,-3.213 -1.23,-0.703 -2.371,-0.445 -3.961,-0.414 -0.263,0.18 -0.143,0.621 -0.506,0.938 -1.509,0.501 -2.486,2.267 -2.515,2.3 0.151,0.121 0.182,0.098 0.138,0.182 -0.049,0.092 -0.931,1.617 -1.265,2.758 -0.477,1.726 0.498,2.568 0.729,2.783 0,0 0.496,0.535 2.77,0.152 0.19,-0.027 0.788,-0.09 1.261,-0.234 0.503,-0.133 1.283,-0.482 2.603,-0.99 0,0 2.383,-1.309 2.383,-4.196" /></g><g
           transform="translate(359.7852,315.123)"
           id="g32"><path
             id="path34"
             style="fill:#007dc2;fill-opacity:1;fill-rule:evenodd;stroke:none"
             d="m 0,0 c 0,0 -2.065,-1.432 -2.714,-6.93 -0.152,-1.658 -0.164,-2.146 -0.289,-3.111 -0.064,-1.631 0.338,-3.02 0.338,-3.02 3.57,3.313 5.396,8.741 7.26,13.922 C 4.8,-0.439 3.419,-2.096 4.367,-3.105 4.43,-3.369 4.071,-3.736 4.43,-3.789 3.927,-4.074 4.228,-5.156 3.652,-5.49 3.62,-5.684 3.715,-5.74 3.808,-5.781 3.207,-6.672 3.506,-8.305 3.027,-8.793 2.995,-9.107 2.995,-9.186 2.897,-9.535 c 0,0 -0.62,-6.361 -1.976,-8.006 -2.859,-5.272 -4.485,-5.529 -4.485,-5.529 -0.462,0.043 -0.799,-0.076 -1.296,-0.147 0,0 -3.116,0.725 -2.795,5.576 0,0 4.21,15.717 4.261,15.948 0.22,1.302 0.881,2.554 0.961,3.877 0,0 -0.355,2.146 -0.917,3.396 -0.188,0.606 0.283,1.496 0.728,2.158 h 0.305 C -2.13,7.811 -2.226,8.107 -2.04,8.184 2.399,8.898 3.367,4.84 3.367,4.84 3.367,4.84 3.085,3.184 2.675,2.215 2.675,2.215 2.19,1.48 0,0" /></g><g
           transform="translate(384.8936,305.6484)"
           id="g36"><path
             id="path38"
             style="fill:#007dc2;fill-opacity:1;fill-rule:nonzero;stroke:none"
             d="m 0,0 c -1.296,0 -2.73,-0.662 -3.961,-0.451 0.271,0.592 1.016,0.664 1.34,1.203 0,0 0.436,-0.508 1.771,1.293 0.334,0.072 1.022,0.447 1.508,0.902 C 2.119,4.945 2.395,4.318 2.395,4.318 2.242,2.086 1.468,1.586 1.468,1.002 1.468,1.002 1.712,0 0,0 m -4.532,-0.387 c -1.099,0.231 -1.775,1.362 -1.479,2.602 0.761,0.234 1.786,0.945 2.904,0.572 -0.11,-1.201 -0.35,-2.277 -1.346,-2.574 -0.079,-0.149 0,-0.459 -0.079,-0.6 m 10.32,25.043 c 0,0 2.319,0.959 2.291,2.543 -0.022,0.053 -0.038,0.078 -0.038,0.108 -1.123,4.375 -9.715,-0.94 -9.715,-0.94 0,0 -4.779,-3.465 -6.211,-3.465 0,0 -0.943,0.661 4.018,8.461 0,0 1.946,2.635 5.713,10.393 0,1.389 0.826,2.426 -0.653,3.92 -3.299,1.058 -6.419,-5.461 -6.419,-5.461 0.162,0.017 0.232,0.101 0.406,0.119 -0.028,-0.201 -0.406,-0.357 -0.231,-0.576 0.176,0.232 0.285,0.537 0.581,0.687 0.584,-0.039 0.74,0.668 1.363,0.453 0,0 -1.346,-3.404 -2.235,-5.554 0,0 -7.318,-12.852 -4.887,-16.543 1.43,-1.408 6.202,2.449 6.202,2.449 0,0 5.525,4.758 6.364,3.932 0.12,-0.159 -4.872,-7.313 -4.872,-7.313 C -4.725,14.066 -8.22,5.906 -8.22,5.906 -9.783,5.4 -10.85,5.703 -12.328,6.199 c -5.085,0.383 -1.986,-3.412 -1.986,-3.412 1.46,-1.025 3.638,-0.664 4.991,-1.025 -1.69,-6.774 3.124,-7.682 3.124,-7.682 2.417,-0.363 4.577,1.436 6.903,1.318 -0.443,-4.837 -3.134,-8.287 -3.134,-8.287 -0.136,0.192 -0.849,0.399 -0.863,0.332 -0.122,-0.24 0.32,-0.595 0.186,-0.859 -1.254,-2.58 0.162,-5.088 0.162,-5.088 0,0.012 0.187,-0.625 0.69,-0.693 0.864,-0.1 2.484,1.095 3.128,2.394 2.195,4.621 3.095,7.157 3.095,7.157 0.817,1.394 0.782,3.662 1.603,5.044 0.646,0.174 1.301,0.555 1.875,0.969 0.538,2.842 -2.272,4.104 -2.272,4.104 0.221,1.943 0.462,3.552 1.196,5.056 1.212,0 3.9,0.903 4.179,0.983 1.584,0.429 2.596,-0.906 2.596,-0.906 0.852,-0.581 1.523,-1.286 3.154,-0.493 2.503,6.34 -5.25,4.258 -5.25,4.258 0,0 -3.677,-0.955 -3.924,-0.398 0,0 1.94,4.49 0.77,8.256 0,0 -0.977,1.82 -3.75,1.082 C 1.42,17.574 1.378,16.027 1.378,16.027 2.142,15.875 2.58,15.408 3.087,15.006 c 0.282,-1.195 0.353,-2.846 0,-3.822 -0.519,0.32 -1.345,0.632 -1.772,1.027 0,0 -2.945,1.615 -3.219,-2.273 C -2.154,8.754 -2.201,7.51 -2.43,6.586 -2.837,5.986 -4.453,6.059 -5.279,6.24 -0.947,21.854 5.788,24.656 5.788,24.656" /></g><g
           transform="translate(502.6533,296.5625)"
           id="g40"><path
             id="path42"
             style="fill:#007dc2;fill-opacity:1;fill-rule:nonzero;stroke:none"
             d="m 0,0 c -0.854,-2.574 -3.617,-6.236 -6.815,-5.615 -1.822,0.564 -1.97,1.396 -1.794,2.969 0.296,4.193 5.298,5.654 5.298,5.654 1.273,-0.112 2.811,0 3.421,-0.549 C 0.11,2.459 0.674,2.006 0,0 M 2.779,41.152 C 3.073,41.1 2.943,40.711 3.051,40.537 3.357,39.98 4.247,39.895 4.668,39.455 4.651,38.717 4.075,38.127 3.697,37.559 2.549,35.822 1.282,33.781 -0.308,32.631 c -0.062,0.486 0.335,1.512 0.232,2.119 1.222,6.598 2.855,6.402 2.855,6.402 m -14.59,10.58 c -0.224,-0.265 -0.442,-0.568 -0.874,-0.609 -0.227,-0.658 -0.196,-1.441 -0.483,-1.855 0,0 0.619,-2.047 0.929,-3.805 -0.125,-1.242 -0.245,-2.799 -0.335,-4.068 -0.258,-3.971 -1.067,-8.122 -0.381,-11.612 0.443,-1.34 1.43,-0.887 2.332,-0.429 0.125,0.039 0.018,0.332 0.156,0.357 0.831,0.227 1.173,1.119 2.057,1.332 1.556,1.207 1.744,3.391 2.031,5.686 0.52,3.808 0.683,7.462 2.37,10.082 -1.727,-9.758 -1.423,-12.61 -1.423,-12.61 0,0 0,-1.115 -0.472,-3.127 0,0 -0.754,-1.439 -0.613,-2.803 -1.315,-1.101 -2.823,-1.199 -4.331,-1.558 -3.859,-0.867 -6.929,-3.221 -10.704,-4.102 -1.236,-0.275 -2.468,-0.836 -3.736,-0.648 0.34,0.328 0.505,0.875 0.835,1.207 -0.066,0.449 0.325,0.826 0.369,1.301 -0.457,-0.401 -1.003,-0.612 -1.582,-0.862 -0.742,-0.316 -1.386,-0.992 -2.369,-0.961 -0.348,-0.343 -0.348,-0.914 -0.794,-1.15 -0.437,-1.211 -0.753,-2.59 -0.644,-3.879 0.416,-0.912 1.527,-0.281 2.227,-0.353 7.317,0.996 9.926,2.634 9.926,2.634 3.328,2.063 6.178,2.711 6.178,2.711 5.033,1.032 6.794,2.135 6.794,2.135 2.473,1.1 4.524,1.793 6.198,2.416 5.851,2.473 7.66,1.824 7.66,1.824 0.582,-0.609 0.625,-1.314 0.256,-2.031 -0.941,-1.818 -4.136,-2.732 -6.868,-3.519 -0.5,-0.163 -0.997,-0.36 -1.483,-0.36 -0.236,0 -0.404,0.045 -0.592,0.039 -1.919,-0.039 -3.309,-1.357 -4.399,-2.039 -0.469,-0.289 -1.093,-0.361 -1.561,-0.592 -0.195,-0.086 -0.396,-0.332 -0.521,-0.382 -0.19,-0.094 -0.565,-0.18 -0.889,-0.293 -0.47,-0.211 -1.418,-0.631 -1.449,-1.1 -0.045,-0.588 1.019,-0.943 1.503,-1.09 0.797,-0.199 1.682,0.031 2.311,-0.094 0.565,0.151 1.111,0.442 1.727,0.483 -0.624,-1.473 -1.719,-3.383 -1.345,-5.143 0.721,-0.9 1.314,-1.564 1.843,-2.937 C -1.445,9.254 -0.943,8.396 -0.53,7.654 -1.428,7.146 -2.455,7.281 -3.373,7.127 -4.009,7.029 -4.811,6.746 -5.432,6.451 -6.637,5.918 -7.785,5.432 -8.704,4.697 -9.014,4.424 -9.34,4.225 -9.65,3.965 -10.041,3.672 -10.422,3.35 -10.721,3.041 -10.875,2.84 -11.047,2.563 -11.188,2.391 -11.335,2.178 -11.619,1.994 -11.739,1.82 c -0.183,-0.291 -0.296,-0.527 -0.435,-0.726 0,0 -1.168,-1.135 -1.144,-2.604 -0.041,-0.265 -0.37,-0.422 -0.549,-0.603 -0.141,-0.41 0.41,-0.557 -0.038,-0.965 0.342,-0.404 0.217,-0.848 0.546,-1.117 0.339,-0.93 0.986,-1.934 0.986,-1.934 2.56,-4.031 4.818,-3.328 4.818,-3.328 3.791,-0.338 7.296,2.988 7.296,2.988 0,0 2.745,2.371 3.286,7.998 1.624,-0.191 3.171,-0.164 4.655,0.19 0.195,0.158 0.591,0.275 0.861,0.56 0.096,0.09 0.373,0.401 0.492,0.53 C 9.266,3.053 9.543,3.143 9.66,3.34 9.983,3.902 9.807,4.674 10.119,5.398 10.013,5.854 9.788,6.197 9.709,6.678 9.377,6.711 9.201,7.035 8.88,7.164 8.567,7.307 8.135,7.25 7.771,7.322 7.45,7.377 7.206,7.582 6.951,7.678 6.518,7.83 6.119,7.789 5.788,8 5.236,8.008 4.698,7.771 4.195,7.922 4.019,7.975 4.135,7.678 3.97,7.723 3.549,8 2.747,7.654 2.288,8.084 2.032,8.295 1.896,9.156 1.728,9.582 1.314,10.568 0.701,11.16 0.149,11.945 c -0.225,0.348 -0.351,0.721 -0.585,1.102 -0.323,0.547 -1.382,1.703 -1.227,2.312 0.026,0.168 0.624,0.584 0.793,0.899 0.403,0.785 0.989,1.092 0.989,1.092 0.313,0.642 0.734,1.279 1.176,1.888 0.349,0.244 1.191,0.617 1.402,0.991 0.496,0.806 0.297,2.431 -0.271,2.667 1.271,0.034 1.742,-0.083 2.713,0.18 0.709,0.17 1.461,0.266 1.757,0.324 0.475,0.37 1.209,0.209 1.209,0.209 0.636,-0.849 1.237,0.123 2.079,-0.23 0.351,0.18 0.666,0.48 1.004,0.762 0.3,0.267 0.716,0.423 0.974,0.695 0.308,0.346 0.389,0.777 0.897,0.816 0.521,0.619 0.771,1.008 0.962,1.68 0.055,0.154 0.296,0.516 0.283,0.875 0,0.398 0.073,1.516 0.026,2.006 -0.119,0.818 -0.779,1.621 -1.357,2.074 -0.721,0.545 -1.707,0.883 -2.838,0.887 -3.822,0.058 -8.38,-1.99 -11.364,-2.694 0.245,0.575 0.877,1.739 1.668,1.237 0.153,-0.242 -0.197,-0.276 -0.168,-0.578 0.786,0.322 1.228,0.849 2.063,1.22 0.186,0.362 0.564,0.381 0.891,0.715 0.068,0.188 0.196,0.315 0.294,0.465 0.483,0 0.6,0.377 1.079,0.377 0,0.164 0.027,0.352 0.046,0.477 0.163,0.08 0.358,0.041 0.513,0.17 1.215,1.115 3.13,1.988 3.13,1.988 1.131,1.103 1.256,2.404 1.256,2.404 0.146,1.197 -0.517,2.414 -1.27,3.244 -0.111,0.123 -0.349,0.332 -0.486,0.483 -0.166,0.164 -0.25,0.379 -0.404,0.474 -0.332,0.287 -0.744,0.266 -0.895,0.631 -0.183,0.385 0.428,0.805 0.7,1.102 0.822,0.949 1.648,1.867 2.6,2.507 1.034,0.334 2.423,0.651 2.667,2.622 0.03,0.205 -0.045,0.662 -0.121,0.99 -0.039,0.156 -0.191,0.418 -0.198,0.597 -0.064,0.377 -0.198,0.661 -0.424,0.868 -0.524,0.465 -1.267,0.509 -1.699,0.853 -0.671,0.52 -0.568,1.686 -0.074,2.641 0.153,0.279 0.291,0.584 0.406,0.867 0.26,0.535 0.614,1.068 0.794,1.564 0.252,0.686 0.14,1.772 -0.238,2.165 C 9.947,61.492 7.799,60.104 7.514,59.43 6.665,58.357 7.019,56.904 6.723,55.521 c 0,0 -1.18,-3.599 -2.373,-6.789 C 3.953,48.373 3.697,47.961 3.344,47.586 3.073,47.285 2.822,46.928 2.549,46.627 2.258,46.322 1.967,46.006 1.611,45.838 1.415,45.424 1.103,45.164 0.744,44.898 0.701,44.734 0.63,44.582 0.564,44.43 c -1.225,-1.127 -1.697,-2.848 -2.535,-4.5 0.248,1.291 0.612,2.601 0.793,4.019 0.153,1.344 0.194,3.024 0.48,4.328 0.293,1.254 0.776,2.588 0.953,3.75 0,1.485 -0.524,2.592 -2.009,2.295 -0.914,-0.193 -1.961,-0.508 -2.336,-1.252 -0.105,0.118 -0.146,-0.029 -0.324,0.03 -1.293,-0.959 -2.377,-2.213 -3.29,-3.623 -0.337,0.205 -0.394,0.642 -0.582,0.955 0,0 -1.527,2.798 -3.525,1.3" /></g><g
           transform="translate(445.1924,303.5391)"
           id="g44"><path
             id="path46"
             style="fill:#007dc2;fill-opacity:1;fill-rule:nonzero;stroke:none"
             d="m 0,0 c -0.063,0.252 -0.196,0.385 -0.324,0.605 -0.819,0.618 -0.668,1.321 -1.522,1.471 -0.073,0.305 0.095,0.715 -0.16,0.92 0.011,0.207 0.255,0.17 0.285,0.387 0.012,0.271 -0.125,0.41 -0.166,0.617 0.262,0.668 0.381,1.482 1.137,1.672 0.426,-0.197 0.98,-0.057 1.41,0.06 0.397,-0.211 0.959,-0.277 1.318,-0.416 0,0 0.255,0 7.057,-6.318 0.641,-0.672 1.563,-1.461 1.758,-2.76 0.654,-4.386 -3.53,-4.318 -3.53,-4.318 -0.44,0.09 -0.818,0.543 -1.293,0.396 0,0 -2.15,0.547 -5.97,7.684" /></g><g
           transform="translate(428.0205,298.3105)"
           id="g48"><path
             id="path50"
             style="fill:#007dc2;fill-opacity:1;fill-rule:nonzero;stroke:none"
             d="m 0,0 c 0,0 -1.864,-1.691 -6.195,-2.689 -1.891,-0.194 -2.578,0.033 -3.125,0.392 0.119,0.195 0.297,0.369 0.424,0.549 -0.199,0.842 0.222,1.832 -0.104,2.777 0.17,0.325 0.553,0.389 0.811,0.596 0.376,-0.176 1.067,-0.059 1.265,-0.418 3.082,-0.736 7.813,5.689 7.813,5.689 0,0 3.967,5.54 4.441,10.778 L 3.913,17.246 c 0,0 -8.23,-2.746 -9.788,0.488 -0.063,0.043 0.084,0.373 -0.109,0.787 -0.129,0.297 -0.617,0.518 -0.632,0.936 -0.023,0.238 0.163,0.529 0.255,0.758 0.283,0.894 1.31,1.81 1.31,1.81 0.244,0.163 0.475,0.436 0.693,0.543 0.062,0.018 2.298,0.893 3.495,0.217 0.056,-0.168 0.092,-0.199 0.035,-0.406 0,0 6.461,-0.547 7.29,2.541 1.201,6.838 0.517,7.949 0.517,14.269 0.035,1.463 0.171,1.717 0.154,3.067 0,0 0.031,1.326 0.137,2.867 0.285,0.977 0.98,1.815 2.091,1.963 0.11,0.041 0.707,0.137 0.721,0.252 0.828,-0.18 1.445,-0.856 2.266,-0.57 0.217,-0.286 -0.057,-0.428 0.09,-0.631 0.068,-0.063 0.265,0 0.339,-0.063 0.063,-0.054 -0.033,-0.224 0.016,-0.301 0.096,-0.156 0.349,-0.068 0.417,-0.156 0.103,-0.099 0.057,-0.322 0.174,-0.541 0.091,-0.156 0.265,-0.045 0.377,-0.373 0.149,-0.228 0.177,-0.541 0.204,-0.693 0.555,-1.809 0.244,-2.475 0.244,-2.475 l -1.432,-4.181 c -0.271,-0.856 -0.339,-1.514 -0.339,-2.491 0,-4.554 -0.891,-8.138 -0.891,-8.138 1.697,0.402 4.285,1.972 4.285,1.972 0,0 2.369,1.282 4.636,-0.892 3.239,-2.754 0.5,-4.717 0.5,-4.717 -0.375,-0.281 -0.515,-0.563 -1.107,-0.563 -0.244,-0.08 -0.257,-0.382 -0.486,-0.425 -0.358,-0.075 -0.547,0.375 -0.886,0.32 -0.231,-0.041 -0.323,-0.309 -0.535,-0.395 0,0 -2.765,-0.406 -3.233,0.241 -0.11,-0.018 -0.369,-0.065 -0.444,-0.123 -1.408,0.058 -3.422,-1.145 -3.861,-1.788 0,0 -0.294,-2.521 -1.259,-7.218 C 9.157,13.137 7.27,5.213 0,0" /></g><g
           transform="translate(283.9136,260.2051)"
           id="g52"><path
             id="path54"
             style="fill:#007dc2;fill-opacity:1;fill-rule:nonzero;stroke:none"
             d="M 0,0 V 16.609 H 2.195 V 9.781 h 8.63 v 6.828 h 2.196 V 0 H 10.825 V 7.824 H 2.195 L 2.195,0 Z" /></g><g
           transform="translate(303.2529,268.248)"
           id="g56"><path
             id="path58"
             style="fill:#007dc2;fill-opacity:1;fill-rule:nonzero;stroke:none"
             d="m 0,0 c 0,-2 0.538,-3.578 1.614,-4.729 1.073,-1.15 2.424,-1.728 4.048,-1.728 1.652,0 3.014,0.584 4.082,1.744 1.069,1.164 1.604,2.813 1.604,4.951 0,1.354 -0.23,2.532 -0.686,3.541 C 10.203,4.787 9.537,5.568 8.656,6.123 7.776,6.68 6.791,6.957 5.695,6.957 4.141,6.957 2.801,6.424 1.681,5.354 0.56,4.285 0,2.5 0,0 m -2.261,0.041 c 0,2.752 0.739,4.91 2.217,6.467 1.478,1.56 3.388,2.34 5.729,2.34 1.532,0 2.913,-0.368 4.14,-1.1 1.231,-0.73 2.169,-1.75 2.816,-3.06 0.644,-1.311 0.966,-2.795 0.966,-4.456 0,-1.683 -0.338,-3.189 -1.018,-4.517 -0.679,-1.328 -1.642,-2.332 -2.886,-3.016 -1.248,-0.685 -2.589,-1.025 -4.03,-1.025 -1.563,0 -2.959,0.377 -4.19,1.133 -1.228,0.754 -2.16,1.785 -2.793,3.089 -0.636,1.307 -0.951,2.688 -0.951,4.145" /></g><g
           transform="translate(320.8369,260.2051)"
           id="g60"><path
             id="path62"
             style="fill:#007dc2;fill-opacity:1;fill-rule:nonzero;stroke:none"
             d="M 0,0 V 16.609 H 2.195 V 9.781 h 8.63 v 6.828 h 2.196 V 0 H 10.825 V 7.824 H 2.195 L 2.195,0 Z" /></g><g
           transform="translate(341.5244,267.0078)"
           id="g64"><path
             id="path66"
             style="fill:#007dc2;fill-opacity:1;fill-rule:nonzero;stroke:none"
             d="M 0,0 H 5.682 L 3.941,4.625 C 3.407,6.021 3.01,7.174 2.746,8.088 2.523,7.004 2.219,5.936 1.839,4.887 Z m -4.762,-6.803 6.381,16.61 h 2.392 l 6.77,-16.61 H 8.279 l -1.91,5.022 h -6.99 l -1.817,-5.022 z" /></g><path
           id="path68"
           style="fill:#007dc2;fill-opacity:1;fill-rule:nonzero;stroke:none"
           d="m 355.493,276.814 h 2.196 v -16.609 h -2.196 z" /><g
           transform="translate(381.0361,276.8145)"
           id="g70"><path
             id="path72"
             style="fill:#007dc2;fill-opacity:1;fill-rule:nonzero;stroke:none"
             d="m 0,0 h 2.196 v -9.596 c 0,-1.67 -0.19,-2.996 -0.568,-3.976 -0.378,-0.983 -1.06,-1.782 -2.046,-2.397 -0.983,-0.617 -2.277,-0.924 -3.881,-0.924 -1.554,0 -2.828,0.27 -3.817,0.805 -0.989,0.535 -1.697,1.313 -2.12,2.328 -0.424,1.016 -0.633,2.405 -0.633,4.164 V 0 h 2.195 v -9.588 c 0,-1.443 0.134,-2.506 0.403,-3.189 0.269,-0.684 0.728,-1.211 1.382,-1.584 0.653,-0.368 1.455,-0.553 2.398,-0.553 1.619,0 2.77,0.367 3.458,1.1 0.689,0.732 1.033,2.14 1.033,4.226 z" /></g><g
           transform="translate(387.917,260.2051)"
           id="g74"><path
             id="path76"
             style="fill:#007dc2;fill-opacity:1;fill-rule:nonzero;stroke:none"
             d="M 0,0 V 16.609 H 2.256 L 10.978,3.566 v 13.043 h 2.108 V 0 H 10.828 L 2.108,13.043 V 0 Z" /></g><path
           id="path78"
           style="fill:#007dc2;fill-opacity:1;fill-rule:nonzero;stroke:none"
           d="m 406.146,276.814 h 2.195 v -16.609 h -2.195 z" /><g
           transform="translate(418.0029,260.2051)"
           id="g80"><path
             id="path82"
             style="fill:#007dc2;fill-opacity:1;fill-rule:nonzero;stroke:none"
             d="m 0,0 -6.423,16.609 h 2.38 L 0.27,4.535 C 0.617,3.566 0.908,2.66 1.142,1.814 1.4,2.723 1.695,3.629 2.035,4.535 L 6.521,16.609 H 8.768 L 2.286,0 Z" /></g><g
           transform="translate(429.8457,260.2051)"
           id="g84"><path
             id="path86"
             style="fill:#007dc2;fill-opacity:1;fill-rule:nonzero;stroke:none"
             d="M 0,0 V 16.609 H 12.021 V 14.652 H 2.196 V 9.564 h 9.196 V 7.607 H 2.196 v -5.65 h 10.217 l 0,-1.957 z" /></g><g
           transform="translate(448.5771,269.4883)"
           id="g88"><path
             id="path90"
             style="fill:#007dc2;fill-opacity:1;fill-rule:nonzero;stroke:none"
             d="m 0,0 h 4.727 c 1.005,0 1.791,0.102 2.359,0.311 0.568,0.207 1,0.541 1.297,0.998 0.295,0.455 0.442,0.953 0.442,1.494 0,0.783 -0.286,1.429 -0.856,1.937 C 7.396,5.246 6.493,5.498 5.26,5.498 H 0 Z M -2.196,-9.283 V 7.326 h 7.367 c 1.479,0 2.605,-0.15 3.377,-0.449 0.768,-0.299 1.386,-0.826 1.848,-1.584 0.458,-0.756 0.69,-1.592 0.69,-2.506 0,-1.182 -0.381,-2.176 -1.145,-2.984 C 9.178,-1.006 7.998,-1.52 6.403,-1.74 6.986,-2.02 7.428,-2.295 7.73,-2.564 8.371,-3.154 8.979,-3.889 9.551,-4.77 l 2.878,-4.513 H 9.682 l -2.2,3.449 c -0.644,0.994 -1.173,1.756 -1.589,2.285 -0.415,0.526 -0.786,0.897 -1.114,1.111 -0.33,0.211 -0.666,0.362 -1.006,0.444 -0.248,0.053 -0.658,0.08 -1.222,0.08 H 0 v -7.369 z" /></g><g
           transform="translate(463.4346,265.5527)"
           id="g92"><path
             id="path94"
             style="fill:#007dc2;fill-opacity:1;fill-rule:nonzero;stroke:none"
             d="m 0,0 2.066,0.174 c 0.096,-0.834 0.327,-1.52 0.684,-2.055 0.359,-0.535 0.916,-0.967 1.672,-1.297 0.752,-0.33 1.603,-0.496 2.545,-0.496 0.838,0 1.577,0.125 2.219,0.375 0.64,0.252 1.118,0.594 1.431,1.031 0.315,0.436 0.47,0.909 0.47,1.422 0,0.518 -0.152,0.971 -0.459,1.36 C 10.32,0.898 9.824,1.225 9.127,1.49 8.684,1.662 7.701,1.934 6.177,2.299 4.655,2.666 3.587,3.01 2.979,3.336 2.188,3.754 1.602,4.268 1.212,4.885 0.823,5.502 0.631,6.191 0.631,6.959 c 0,0.838 0.239,1.623 0.711,2.354 0.476,0.73 1.17,1.285 2.082,1.662 0.914,0.379 1.926,0.568 3.041,0.568 1.23,0 2.312,-0.199 3.253,-0.594 0.936,-0.396 1.66,-0.978 2.165,-1.75 0.504,-0.765 0.774,-1.638 0.812,-2.613 L 10.587,6.434 C 10.476,7.475 10.092,8.26 9.44,8.791 8.788,9.32 7.823,9.586 6.551,9.586 5.223,9.586 4.256,9.344 3.649,8.855 3.044,8.369 2.739,7.781 2.739,7.096 2.739,6.5 2.953,6.008 3.383,5.623 3.807,5.238 4.908,4.844 6.693,4.439 8.475,4.035 9.699,3.684 10.363,3.383 c 0.969,-0.445 1.68,-1.01 2.143,-1.692 0.459,-0.681 0.689,-1.468 0.689,-2.357 0,-0.883 -0.252,-1.715 -0.757,-2.494 -0.506,-0.781 -1.231,-1.387 -2.176,-1.82 -0.948,-0.434 -2.012,-0.651 -3.194,-0.651 -1.5,0 -2.757,0.221 -3.772,0.658 -1.013,0.442 -1.81,1.1 -2.386,1.981 C 0.334,-2.109 0.029,-1.113 0,0" /></g><path
           id="path96"
           style="fill:#007dc2;fill-opacity:1;fill-rule:nonzero;stroke:none"
           d="m 481.081,276.814 h 2.195 v -16.609 h -2.195 z" /><g
           transform="translate(492.4395,260.2051)"
           id="g98"><path
             id="path100"
             style="fill:#007dc2;fill-opacity:1;fill-rule:nonzero;stroke:none"
             d="m 0,0 v 14.652 h -5.478 v 1.957 H 7.674 V 14.652 H 2.196 L 2.196,0 Z" /></g><g
           transform="translate(508.1191,260.2051)"
           id="g102"><path
             id="path104"
             style="fill:#007dc2;fill-opacity:1;fill-rule:nonzero;stroke:none"
             d="m 0,0 v 7.035 l -6.392,9.574 h 2.671 l 3.259,-5.017 c 0.608,-0.934 1.171,-1.863 1.69,-2.789 0.501,0.857 1.106,1.832 1.809,2.926 l 3.226,4.88 H 8.826 L 2.195,7.035 V 0 Z" /></g><g
           transform="translate(371.2705,381.8555)"
           id="g106"><path
             id="path108"
             style="fill:#007dc2;fill-opacity:1;fill-rule:nonzero;stroke:none"
             d="m 0,0 c -4.027,1.672 -7.171,4.805 -8.836,8.814 -3.896,9.416 -14.727,20.257 -24.14,24.166 -4.005,1.666 -7.144,4.799 -8.811,8.841 -1.671,4.043 -1.674,8.479 -0.012,12.487 3.899,9.412 3.901,24.739 0.006,34.15 -3.443,8.315 0.522,17.889 8.834,21.322 9.42,3.891 20.258,14.727 24.162,24.138 3.447,8.314 13.008,12.275 21.319,8.828 9.416,-3.9 24.743,-3.904 34.162,-0.009 4.004,1.66 8.438,1.651 12.482,-0.022 4.033,-1.675 7.173,-4.801 8.832,-8.817 3.9,-9.419 14.734,-20.26 24.147,-24.151 8.315,-3.444 12.262,-13.013 8.828,-21.324 C 97.068,79.011 97.063,63.682 100.962,54.265 104.399,45.96 100.436,36.392 92.126,32.94 82.706,29.044 71.872,18.205 67.963,8.795 66.307,4.787 63.165,1.654 59.123,-0.014 55.083,-1.682 50.654,-1.691 46.644,-0.031 37.229,3.875 21.903,3.875 12.48,-0.023 8.477,-1.676 4.043,-1.674 0,0 m -11.633,135.095 c -3.574,-8.62 -13.873,-18.916 -22.5,-22.488 -9.871,-4.08 -14.578,-15.443 -10.498,-25.318 3.57,-8.627 3.564,-23.186 -0.01,-31.809 -1.964,-4.769 -1.964,-10.033 0.023,-14.828 1.982,-4.803 5.696,-8.531 10.463,-10.513 8.622,-3.569 18.923,-13.875 22.488,-22.493 4.085,-9.88 15.45,-14.591 25.323,-10.501 8.619,3.57 23.195,3.57 31.811,-0.008 9.878,-4.09 21.24,0.609 25.328,10.482 3.581,8.617 13.881,18.921 22.503,22.493 9.873,4.081 14.579,15.45 10.497,25.331 v -0.011 c -3.566,8.635 -3.566,23.199 0.01,31.814 4.09,9.878 -0.61,21.241 -10.489,25.326 -8.619,3.571 -18.918,13.881 -22.474,22.505 -1.983,4.763 -5.71,8.481 -10.505,10.472 -4.792,1.985 -10.056,1.994 -14.826,0.025 -8.623,-3.572 -23.198,-3.569 -31.813,0.006 -9.88,4.098 -21.237,-0.613 -25.331,-10.485" /></g><g
           transform="translate(358.7607,384.6309)"
           id="g110"><path
             id="path112"
             style="fill:#007dc2;fill-opacity:1;fill-rule:nonzero;stroke:none"
             d="m 0,0 c -4.285,10.345 -16.171,22.238 -26.512,26.527 -9.091,3.77 -13.421,14.237 -9.655,23.332 4.286,10.339 4.294,27.159 0.018,37.503 -3.769,9.095 0.567,19.564 9.667,23.313 10.341,4.287 22.234,16.177 26.521,26.512 3.77,9.095 14.23,13.427 23.324,9.654 10.34,-4.285 27.16,-4.285 37.502,-0.011 9.102,3.768 19.558,-0.571 23.326,-9.663 4.278,-10.347 16.167,-22.246 26.506,-26.528 4.384,-1.817 7.811,-5.248 9.635,-9.671 1.829,-4.426 1.838,-9.266 0.023,-13.651 -4.29,-10.333 -4.293,-27.159 -0.018,-37.498 3.769,-9.091 -0.569,-19.569 -9.665,-23.33 C 100.334,22.207 88.436,10.312 84.158,-0.018 80.383,-9.113 69.916,-13.441 60.824,-9.676 50.479,-5.391 33.658,-5.387 23.32,-9.666 14.225,-13.43 3.762,-9.1 0,0 m -3.156,138.504 c -3.914,-9.441 -15.203,-20.728 -24.651,-24.637 -10.851,-4.491 -16.027,-16.971 -11.532,-27.828 3.902,-9.446 3.901,-25.405 -0.016,-34.854 -4.493,-10.858 0.674,-23.351 11.529,-27.851 9.445,-3.912 20.736,-15.201 24.635,-24.654 4.494,-10.848 16.985,-16.035 27.83,-11.535 9.453,3.908 25.42,3.908 34.865,-0.01 10.851,-4.496 23.343,0.676 27.836,11.525 3.912,9.444 15.21,20.727 24.657,24.636 10.851,4.493 16.024,16.985 11.534,27.848 -3.911,9.441 -3.911,25.41 0.006,34.853 2.167,5.237 2.167,11.024 -0.016,16.297 -2.182,5.271 -6.261,9.361 -11.503,11.532 -9.446,3.914 -20.729,15.21 -24.639,24.659 -4.488,10.849 -16.976,16.025 -27.834,11.538 -9.446,-3.916 -25.414,-3.909 -34.859,0.006 -10.851,4.493 -23.338,-0.664 -27.842,-11.525" /></g><g
           transform="translate(341.7754,482.7842)"
           id="g114"><path
             id="path116"
             style="fill:#007dc2;fill-opacity:1;fill-rule:evenodd;stroke:none"
             d="m 0,0 c 0,0 -0.237,-0.34 -1.784,0.929 -0.572,0.516 -0.36,1.229 -0.36,1.229 1.139,1.381 2.028,1.232 2.028,1.232 C 0.103,3.28 0.325,3.247 0.548,3.161 0.94,2.825 1.145,2.401 1.237,2.01 1.237,2.01 1.105,0.977 0,0" /></g><g
           transform="translate(351.5576,489.9141)"
           id="g118"><path
             id="path120"
             style="fill:#007dc2;fill-opacity:1;fill-rule:nonzero;stroke:none"
             d="M 0,0 C 0.527,0.761 1.558,-0.193 1.558,-0.193 L 4.878,-3.4 6.041,-4.646 c 0.605,-0.656 1.318,-1.039 1.864,-1.498 0.648,-0.533 1.386,-1.211 1.999,-1.854 0.432,-0.443 1.006,-0.808 1.271,-1.389 -0.525,-0.376 -1.14,-0.337 -1.618,-0.529 0.032,-0.025 0.019,-0.025 0.112,-0.011 -0.048,-0.165 -0.287,-0.122 -0.337,-0.255 0.13,-0.008 0.248,0.03 0.382,0.058 0.022,-0.045 0,-0.096 0.069,-0.147 0.278,-0.01 0.553,0.119 0.837,-0.007 -0.088,-0.069 -0.134,-0.105 -0.13,-0.203 0.273,-0.124 0.535,0.042 0.808,-0.044 -0.206,-0.09 -0.542,0.034 -0.643,-0.162 0.325,-0.192 0.691,0.185 0.982,-0.17 0.361,0 0.638,-0.123 0.985,-0.091 0,0 0.489,-0.575 0.983,0.153 0.264,0.786 -0.214,1.449 -0.214,1.449 0,0 -0.737,0.857 -3.198,2.718 -1.081,1.52 -2.885,2.513 -2.885,2.513 0,0 -0.648,0.572 -0.962,1.034 C 3.601,-0.166 2.51,0.579 2.51,0.579 1.436,2.311 0.661,2.013 0.661,2.013 0.002,1.735 -0.076,1.327 -0.298,0.991 c -0.466,0.731 -0.083,3.541 -0.083,3.541 1.147,3.396 -0.66,2.746 -0.66,2.746 0,0 -1.387,-0.31 -1.2,-3.229 0,0 -0.821,-5.518 -0.821,-7.676 0,0 -0.015,-2.944 0.801,-6.593 0,0 0.573,-2.517 1.243,-3.404 0.319,-0.432 1.131,-1.784 1.764,-2.855 -0.361,0.088 -0.649,0.294 -0.945,0.59 0,0 -3.326,3.584 -3.602,4.402 0,0 0.528,2.352 -1.359,2.808 0,0 -0.209,0.026 -0.465,-0.089 -0.477,-0.19 -1.464,-0.743 -1.578,-0.875 -0.24,-0.205 -0.12,-0.509 -0.156,-0.838 0,0 0.199,-0.776 1.812,-1.533 0.019,-0.007 0.041,-0.016 0.055,-0.024 0.214,-0.099 3.767,-4.285 3.767,-4.285 3.801,-4.585 4.482,-1.675 4.482,-1.675 -0.039,1.002 -0.047,1.981 -0.522,2.79 -0.905,0.952 -2.009,2.037 -2.143,2.237 -1.435,1.471 -3.119,8.323 -1.321,13.42 0.702,-2.337 1.585,-4.684 2.476,-7.012 0,0 0.116,-1.335 1.15,-2.125 0,0 0.484,-0.213 0.845,0.301 0.277,0.985 -0.263,1.498 -0.263,1.498 C 2.154,-5.985 2.334,-5.623 2.334,-5.623 3.51,-6.406 4.363,-5.797 4.363,-5.797 5.486,-4.869 4.072,-3.77 4.072,-3.77 3.74,-3.641 3.486,-3.404 3.209,-3.255 2.686,-2.974 2.377,-2.643 2.377,-2.643 1.883,-2.306 2.014,-2.563 1.834,-2.5 1.596,-2.4 1.452,-2.098 1.238,-2.042 1.107,-2.107 1.287,-2.25 1.172,-2.269 c -0.19,0.098 -0.24,0.358 -0.401,0.453 0.297,-0.52 0.704,-1.001 0.868,-1.528 -0.273,-0.122 -0.33,-0.36 -0.432,-0.548 -0.289,0.703 -0.402,1.341 -0.745,2.121 -0.187,0.687 -0.607,1.328 -0.624,1.935 0,0 0.009,0.125 0.162,-0.164" /></g><g
           transform="translate(423.1084,498.3818)"
           id="g122"><path
             id="path124"
             style="fill:#007dc2;fill-opacity:1;fill-rule:nonzero;stroke:none"
             d="m 0,0 c -0.006,0.107 -0.053,0.18 -0.08,0.288 -0.283,0.337 -0.149,0.62 -0.492,0.771 0,0.138 0.115,0.29 0.031,0.407 0.018,0.087 0.127,0.039 0.146,0.131 0.041,0.11 0,0.178 -0.007,0.269 0.187,0.258 0.32,0.588 0.66,0.588 C 0.42,2.327 0.66,2.327 0.854,2.329 1.002,2.209 1.227,2.124 1.359,2.018 c 0,0 0.11,-0.024 2.317,-3.351 0.204,-0.352 0.505,-0.788 0.452,-1.344 -0.17,-1.901 -1.911,-1.442 -1.911,-1.442 -0.176,0.083 -0.29,0.302 -0.515,0.291 0,0 -0.829,0.45 -1.702,3.828" /></g><g
           transform="translate(415.3779,497.939)"
           id="g126"><path
             id="path128"
             style="fill:#007dc2;fill-opacity:1;fill-rule:nonzero;stroke:none"
             d="m 0,0 c 0,0 -0.955,-0.517 -2.866,-0.51 -0.814,0.118 -1.084,0.285 -1.269,0.501 0.068,0.066 0.155,0.114 0.235,0.182 0,0.377 0.273,0.744 0.236,1.175 0.096,0.114 0.264,0.111 0.404,0.171 0.135,-0.121 0.434,-0.144 0.483,-0.318 1.214,-0.606 3.852,1.595 3.852,1.595 0,0 2.218,1.907 2.96,4.057 L 3.39,6.825 c 0,0 -3.72,-0.313 -4.053,1.197 -0.003,0.028 0.079,0.152 0.04,0.337 -0.025,0.143 -0.204,0.288 -0.172,0.46 0.01,0.103 0.132,0.208 0.187,0.297 0.212,0.343 0.732,0.629 0.732,0.629 0.122,0.033 0.235,0.123 0.348,0.15 0.031,0.002 1.053,0.144 1.483,-0.265 0.006,-0.073 0.02,-0.09 -0.023,-0.181 0,0 2.648,-0.882 3.306,0.329 1.195,2.736 1.028,3.283 1.668,5.923 0.165,0.614 0.246,0.707 0.375,1.267 0,0 0.151,0.562 0.356,1.187 0.217,0.385 0.59,0.662 1.068,0.611 0.051,0.008 0.301,-0.012 0.326,0.039 0.328,-0.162 0.52,-0.509 0.895,-0.465 0.061,-0.152 -0.065,-0.181 -0.014,-0.282 0.009,-0.028 0.099,-0.018 0.118,-0.055 0.027,-0.034 -0.026,-0.09 -0.018,-0.132 0.033,-0.067 0.138,-0.061 0.161,-0.101 0.026,-0.057 -0.009,-0.154 0.015,-0.256 0.019,-0.069 0.111,-0.043 0.12,-0.196 0.036,-0.104 0.015,-0.233 0.015,-0.309 0.052,-0.813 -0.153,-1.055 -0.153,-1.055 L 9.15,14.338 C 8.952,14.014 8.854,13.741 8.756,13.336 8.291,11.432 7.553,10.029 7.553,10.029 c 0.763,-0.015 1.994,0.379 1.994,0.379 0,0 1.115,0.3 1.859,-0.845 C 12.474,8.077 11.129,7.542 11.129,7.542 10.939,7.459 10.851,7.356 10.605,7.416 10.502,7.403 10.461,7.285 10.358,7.285 c -0.151,0.008 -0.194,0.218 -0.333,0.228 -0.104,0 -0.174,-0.097 -0.266,-0.11 0,0 -1.207,0.11 -1.332,0.424 C 8.377,7.83 8.26,7.836 8.227,7.824 7.648,7.985 6.682,7.688 6.427,7.462 6.427,7.462 6.053,6.433 5.172,4.571 5.172,4.571 3.57,1.446 0,0" /></g><g
           transform="translate(443.7949,474.8462)"
           id="g130"><path
             id="path132"
             style="fill:#007dc2;fill-opacity:1;fill-rule:nonzero;stroke:none"
             d="M 0,0 C -1.054,-0.29 -2.866,-0.205 -3.382,0.999 -3.604,1.729 -3.36,1.957 -2.8,2.25 -1.353,3.096 0.248,1.768 0.248,1.768 0.501,1.327 0.879,0.845 0.833,0.517 0.833,0.517 0.812,0.235 0,0 M 14.207,8.308 C 14.257,8.207 14.087,8.162 14.063,8.077 13.952,7.858 14.116,7.552 14.067,7.306 13.817,7.145 13.499,7.209 13.222,7.201 12.397,7.186 11.433,7.155 10.706,7.42 c 0.139,0.132 0.568,0.225 0.75,0.391 2.446,1.085 2.751,0.497 2.751,0.497 m 0.222,7.189 c -0.143,0.013 -0.285,0.027 -0.4,0.147 -0.258,-0.072 -0.516,-0.261 -0.714,-0.244 0,0 -0.54,-0.673 -1.049,-1.169 -0.443,-0.238 -0.976,-0.543 -1.421,-0.797 -1.369,-0.81 -2.92,-1.47 -3.917,-2.478 -0.335,-0.446 0.025,-0.674 0.378,-0.874 0.041,-0.027 0.117,0.079 0.153,0.039 0.267,-0.233 0.634,-0.134 0.896,-0.387 0.753,-0.244 1.517,0.189 2.333,0.605 1.375,0.684 2.627,1.451 3.854,1.483 -3.6,-1.62 -4.467,-2.365 -4.467,-2.365 0,0 -0.369,-0.244 -1.15,-0.542 0,0 -0.633,-0.072 -1.059,-0.427 C 7.219,8.676 6.84,9.152 6.389,9.586 5.233,10.65 3.766,11.133 2.642,12.182 c -0.379,0.342 -0.84,0.63 -1.055,1.092 0.189,-0.04 0.4,0.034 0.588,0 0.123,0.12 0.336,0.074 0.502,0.16 C 2.45,13.501 2.259,13.633 2.045,13.767 1.767,13.94 1.401,14.005 1.195,14.332 1.001,14.37 0.812,14.24 0.636,14.341 0.143,14.212 -0.386,14.005 -0.782,13.676 -1.001,13.334 -0.532,13.114 -0.4,12.859 1.558,10.672 2.683,10.186 2.683,10.186 4.118,9.545 4.975,8.753 4.975,8.753 6.435,7.33 7.194,6.984 7.194,6.984 8.114,6.412 8.804,5.896 9.379,5.473 11.507,4.095 11.696,3.358 11.696,3.358 11.627,3.034 11.404,2.866 11.08,2.823 10.273,2.723 9.252,3.578 8.38,4.294 8.216,4.43 8.036,4.54 7.929,4.704 7.874,4.787 7.855,4.848 7.815,4.916 7.366,5.533 6.622,5.7 6.154,5.905 5.955,6 5.794,6.19 5.605,6.289 5.54,6.325 5.409,6.351 5.36,6.375 5.297,6.415 5.194,6.523 5.069,6.604 4.899,6.708 4.55,6.935 4.375,6.837 4.187,6.726 4.298,6.289 4.366,6.092 4.474,5.786 4.742,5.546 4.849,5.307 5.019,5.152 5.239,5.043 5.393,4.848 4.767,4.729 3.895,4.652 3.394,4.139 3.255,3.696 3.175,3.358 2.839,2.869 2.73,2.555 2.552,2.196 2.401,1.896 2.045,2.083 1.852,2.444 1.597,2.721 1.421,2.899 1.147,3.096 0.925,3.239 0.466,3.517 0.048,3.794 -0.4,3.925 -0.554,3.971 -0.699,4.033 -0.847,4.079 -1.04,4.139 -1.228,4.192 -1.395,4.211 -1.501,4.23 -1.621,4.23 -1.72,4.232 c -0.098,0.007 -0.224,0.051 -0.314,0.054 -0.127,0 -0.241,-0.019 -0.333,-0.013 0,0 -0.631,0.12 -1.116,-0.212 C -3.581,4.015 -3.699,4.088 -3.813,4.104 -3.972,4.057 -3.897,3.853 -4.132,3.912 -4.192,3.706 -4.357,3.641 -4.384,3.476 -4.603,3.157 -4.796,2.721 -4.796,2.721 -5.547,0.976 -4.813,0.381 -4.813,0.381 c 0.729,-1.325 2.621,-1.739 2.621,-1.739 0,0 1.392,-0.379 3.377,0.708 0.298,-0.586 0.65,-1.087 1.111,-1.494 0.086,-0.024 0.215,-0.132 0.367,-0.163 0.062,-0.013 0.217,-0.024 0.298,-0.042 0.116,-0.021 0.214,-0.094 0.313,-0.087 0.254,0.026 0.461,0.247 0.778,0.31 0.125,0.138 0.186,0.293 0.323,0.421 -0.069,0.119 0.009,0.242 -0.021,0.382 C 4.329,-1.19 4.212,-1.061 4.155,-0.92 4.095,-0.803 4.118,-0.679 4.087,-0.565 4.05,-0.394 3.942,-0.267 3.935,-0.11 3.816,0.066 3.618,0.201 3.554,0.39 3.534,0.467 3.464,0.356 3.442,0.422 3.427,0.63 3.136,0.812 3.175,1.059 3.199,1.197 3.446,1.436 3.554,1.582 3.784,1.938 3.846,2.279 3.978,2.624 4.034,2.777 4.138,2.906 4.2,3.071 4.316,3.304 4.458,3.904 4.688,3.997 4.754,4.022 5.037,3.925 5.16,3.934 5.519,3.975 5.757,3.849 5.757,3.849 6.036,3.892 6.339,3.894 6.636,3.876 6.802,3.829 7.116,3.629 7.283,3.641 7.659,3.664 8.149,4.091 8.099,4.331 8.405,3.925 8.468,3.737 8.759,3.476 8.983,3.277 9.175,3.05 9.267,2.972 9.491,2.893 9.61,2.624 9.61,2.624 9.473,2.217 9.921,2.243 9.999,1.882 10.134,1.805 10.31,1.768 10.465,1.721 c 0.167,-0.043 0.311,-0.139 0.46,-0.157 0.174,-0.034 0.336,0.037 0.475,-0.12 0.312,-0.036 0.496,-0.03 0.763,0.053 0.06,0.021 0.234,0.026 0.354,0.104 0.123,0.09 0.523,0.316 0.659,0.442 0.245,0.225 0.368,0.615 0.389,0.915 0.016,0.353 -0.095,0.754 -0.345,1.137 -0.829,1.266 -2.54,2.317 -3.442,3.146 0.243,0.055 0.772,0.102 0.788,-0.281 -0.045,-0.104 -0.137,0.01 -0.227,-0.071 0.273,-0.184 0.554,-0.217 0.862,-0.41 0.164,0.023 0.255,-0.09 0.433,-0.126 0.078,0.01 0.155,0.008 0.22,0 0.113,-0.158 0.266,-0.112 0.371,-0.263 0.051,0.029 0.116,0.063 0.166,0.1 0.073,-0.06 0.094,-0.13 0.168,-0.144 0.647,-0.148 1.365,-0.596 1.365,-0.596 0.618,-0.111 1.074,0.13 1.074,0.13 0.421,0.224 0.673,0.714 0.782,1.154 0.014,0.063 0.039,0.183 0.047,0.263 0.021,0.094 0.065,0.171 0.072,0.237 0.018,0.175 -0.08,0.306 0,0.442 0.086,0.145 0.371,0.042 0.529,0.019 0.505,-0.065 0.989,-0.128 1.403,-0.297 0.348,-0.267 0.762,-0.652 1.47,-0.304 0.071,0.042 0.204,0.169 0.297,0.263 0.042,0.055 0.098,0.162 0.152,0.21 0.104,0.099 0.179,0.205 0.194,0.329 0.041,0.272 -0.117,0.542 -0.099,0.752 0.019,0.338 0.433,0.569 0.847,0.617 0.135,0.012 0.268,0.032 0.386,0.06 0.23,0.036 0.484,0.036 0.691,0.085 0.285,0.08 0.612,0.356 0.66,0.567 0.102,0.521 -0.85,0.917 -1.134,0.862 -0.542,0.035 -0.941,-0.393 -1.468,-0.613 0,0 -1.449,-0.414 -2.776,-0.739 -0.204,0.058 -0.4,0.045 -0.588,0.072 C 16.291,9.586 16.12,9.592 15.958,9.614 15.794,9.64 15.628,9.659 15.49,9.749 15.31,9.71 15.153,9.759 14.993,9.812 14.928,9.797 14.852,9.786 14.796,9.777 14.144,9.923 13.47,9.699 12.73,9.601 c 0.492,0.211 1.002,0.378 1.509,0.643 0.485,0.247 1.043,0.609 1.535,0.804 0.478,0.192 1.027,0.332 1.454,0.533 0.5,0.33 0.734,0.756 0.31,1.178 -0.274,0.261 -0.611,0.527 -0.939,0.49 0.017,0.059 -0.037,0.044 -0.059,0.11 -0.607,0.206 -1.258,0.29 -1.936,0.276 -0.013,0.152 0.124,0.275 0.192,0.398 0,0 0.572,1.143 -0.367,1.464" /></g><g
           transform="translate(376.8779,510.0225)"
           id="g134"><path
             id="path136"
             style="fill:#007dc2;fill-opacity:1;fill-rule:evenodd;stroke:none"
             d="m 0,0 c 0.142,-1.002 -0.332,-1.355 -0.332,-1.355 -0.402,-0.367 -0.861,-0.374 -1.469,-0.5 -0.106,0.041 -0.106,0.226 -0.262,0.308 -0.619,0.066 -1.144,0.638 -1.146,0.648 0.039,0.061 0.059,0.054 0.02,0.077 -0.018,0.03 -0.483,0.531 -0.708,0.932 -0.333,0.604 -0.035,1.013 0.026,1.117 0,0 0.15,0.233 1.043,0.297 0.058,0.009 0.302,0.028 0.49,0.022 0.192,-0.005 0.522,-0.069 1.065,-0.144 0,0 1.015,-0.289 1.261,-1.381" /></g><g
           transform="translate(376.9824,503.647)"
           id="g138"><path
             id="path140"
             style="fill:#007dc2;fill-opacity:1;fill-rule:evenodd;stroke:none"
             d="m 0,0 c 0,0 -0.652,-0.727 -0.425,-2.851 0.098,-0.641 0.121,-0.817 0.166,-1.203 0.122,-0.611 0.393,-1.104 0.393,-1.104 1.056,1.555 1.267,3.762 1.524,5.881 0.18,-0.475 -0.186,-1.214 0.261,-1.519 0.051,-0.093 -0.07,-0.262 0.08,-0.255 -0.172,-0.148 0.037,-0.535 -0.15,-0.706 0.005,-0.071 0.047,-0.08 0.089,-0.096 -0.151,-0.386 0.098,-0.972 -0.037,-1.203 0.014,-0.123 0.03,-0.147 0.018,-0.287 0,0 0.318,-2.453 -0.048,-3.193 -0.602,-2.23 -1.2,-2.473 -1.2,-2.473 -0.182,-0.023 -0.297,-0.096 -0.478,-0.166 0,0 -1.231,0 -1.544,1.846 0,0 0.214,6.3 0.214,6.388 -0.02,0.512 0.115,1.042 0.022,1.537 0,0 -0.319,0.781 -0.634,1.209 -0.131,0.211 -0.024,0.585 0.086,0.873 0.038,0.009 0.07,0.021 0.107,0.024 0.063,0.042 0.01,0.157 0.071,0.198 1.614,0.654 2.323,-0.784 2.323,-0.784 0,0 0.046,-0.653 -0.032,-1.058 C 0.806,1.058 0.691,0.74 0,0" /></g><g
           transform="translate(387.2686,502.2632)"
           id="g142"><path
             id="path144"
             style="fill:#007dc2;fill-opacity:1;fill-rule:nonzero;stroke:none"
             d="m 0,0 c -0.491,-0.113 -0.973,-0.489 -1.463,-0.515 0.053,0.249 0.334,0.339 0.405,0.583 0,0 0.21,-0.168 0.549,0.634 0.125,0.045 0.355,0.253 0.49,0.465 C 0.36,2.046 0.522,1.833 0.522,1.833 0.662,0.988 0.41,0.731 0.461,0.506 0.461,0.506 0.645,0.149 0,0 m -1.68,-0.544 c -0.437,-0.009 -0.775,0.364 -0.787,0.855 0.268,0.151 0.6,0.514 1.043,0.469 0.07,-0.461 0.07,-0.89 -0.278,-1.09 -0.023,-0.063 0.045,-0.166 0.022,-0.234 M 0.022,9.792 c 0,0 0.789,0.563 0.64,1.162 -0.017,0.013 -0.017,0.024 -0.024,0.038 -0.8,1.547 -3.577,-1.205 -3.577,-1.205 0,0 -1.496,-1.724 -2.037,-1.853 0,0 -0.409,0.175 0.777,3.543 0,0 0.505,1.163 1.236,4.413 -0.118,0.523 0.108,0.994 -0.576,1.421 -1.338,0.113 -1.945,-2.613 -1.945,-2.613 0.062,0.02 0.08,0.058 0.142,0.073 0.009,-0.078 -0.126,-0.166 -0.039,-0.232 0.049,0.1 0.063,0.225 0.151,0.304 0.232,0.049 0.232,0.326 0.482,0.293 0,0 -0.215,-1.402 -0.356,-2.287 0,0 -1.638,-5.48 -0.391,-6.657 0.655,-0.41 2.118,1.466 2.118,1.466 0,0 1.652,2.272 2.053,2.029 C -1.258,9.637 -2.516,6.512 -2.516,6.512 -3.017,4.895 -3.619,1.508 -3.619,1.508 -4.154,1.18 -4.599,1.203 -5.188,1.257 -7.139,0.958 -5.641,-0.202 -5.641,-0.202 c 0.643,-0.251 1.426,0.07 1.975,0.048 -0.055,-2.698 1.851,-2.611 1.851,-2.611 0.938,0.066 1.595,0.936 2.47,1.093 0.27,-1.86 -0.448,-3.397 -0.448,-3.397 -0.068,0.069 -0.351,0.082 -0.355,0.051 -0.028,-0.103 0.179,-0.197 0.138,-0.304 -0.238,-1.085 0.519,-1.911 0.519,-1.911 0,0.004 0.112,-0.218 0.307,-0.201 0.348,0.047 0.85,0.633 0.969,1.175 0.423,1.947 0.555,2.981 0.555,2.981 0.181,0.593 -0.023,1.436 0.156,2.029 0.225,0.124 0.443,0.329 0.625,0.533 C 3.068,0.396 1.906,0.629 1.906,0.629 1.824,1.378 1.765,2.015 1.908,2.633 2.373,2.739 3.303,3.321 3.404,3.373 3.96,3.672 4.449,3.258 4.449,3.258 4.829,3.113 5.146,2.909 5.695,3.352 6.075,5.953 3.339,4.499 3.339,4.499 c 0,0 -1.298,-0.687 -1.445,-0.49 0,0 0.336,1.855 -0.427,3.173 0,0 -0.529,0.599 -1.503,0.077 C -1.005,6.743 -0.893,6.157 -0.893,6.157 -0.586,6.174 -0.379,6.03 -0.154,5.919 0.063,5.494 0.227,4.885 0.178,4.486 c -0.221,0.077 -0.557,0.116 -0.754,0.232 0,0 -1.252,0.353 -1.014,-1.135 0.001,-0.476 0.108,-0.94 0.09,-1.317 -0.098,-0.257 -0.71,-0.378 -1.036,-0.374 0.27,6.261 2.558,7.9 2.558,7.9" /></g><g
           transform="translate(351.9912,432.7417)"
           id="g146"><path
             id="path148"
             style="fill:#007dc2;fill-opacity:1;fill-rule:nonzero;stroke:none"
             d="m 0,0 -9.544,-3.474 -0.435,1.222 4.383,1.592 -1.661,4.565 -4.389,-1.597 -0.448,1.22 9.547,3.472 0.443,-1.215 -4.007,-1.458 1.662,-4.57 4.008,1.463 z" /></g><g
           transform="translate(349.3467,426.6343)"
           id="g150"><path
             id="path152"
             style="fill:#007dc2;fill-opacity:1;fill-rule:nonzero;stroke:none"
             d="M 0,0 C -2.112,-1.46 -2.684,-3.106 -1.704,-4.928 -0.508,-6.582 1.211,-6.786 3.458,-5.525 5.59,-4.08 6.153,-2.46 5.148,-0.65 3.941,1.033 2.217,1.25 0,0 M -0.684,1.1 C 2.303,2.72 4.588,2.345 6.178,-0.009 7.594,-2.465 6.927,-4.682 4.171,-6.658 1.24,-8.235 -1.02,-7.845 -2.607,-5.496 -4.025,-3.034 -3.385,-0.842 -0.684,1.1" /></g><g
           transform="translate(364.6719,415.3989)"
           id="g154"><path
             id="path156"
             style="fill:#007dc2;fill-opacity:1;fill-rule:nonzero;stroke:none"
             d="m 0,0 -7.313,-7.06 -0.899,0.936 3.364,3.244 -3.371,3.498 -3.364,-3.249 -0.901,0.935 7.311,7.055 0.905,-0.931 -3.073,-2.964 3.372,-3.493 3.073,2.959 z" /></g><g
           transform="translate(369.0439,410.144)"
           id="g158"><path
             id="path160"
             style="fill:#007dc2;fill-opacity:1;fill-rule:nonzero;stroke:none"
             d="m 0,0 -3.838,-2.832 2.385,-1.665 z m -7.297,-5.438 -1.061,0.747 8.7,6.315 1.174,-0.819 -3.049,-10.27 -1.143,0.796 0.905,2.908 -3.073,2.147 z" /></g><g
           transform="translate(371.5205,398.6055)"
           id="g162"><path
             id="path164"
             style="fill:#007dc2;fill-opacity:1;fill-rule:nonzero;stroke:none"
             d="M 0,0 4.558,9.086 5.669,8.525 1.116,-0.564 Z" /></g><g
           transform="translate(389.6152,396.1035)"
           id="g166"><path
             id="path168"
             style="fill:#007dc2;fill-opacity:1;fill-rule:nonzero;stroke:none"
             d="m 0,0 c -0.712,-2.33 -2.255,-3.25 -4.612,-2.762 -2.198,0.629 -3.053,2.086 -2.564,4.369 l 1.646,6.509 1.206,-0.31 -1.544,-6.113 c -0.428,-1.808 0.099,-2.921 1.586,-3.328 1.572,-0.326 2.597,0.373 3.063,2.098 L 0.343,6.624 1.594,6.305 Z" /></g><g
           transform="translate(401.2305,401.52)"
           id="g170"><path
             id="path172"
             style="fill:#007dc2;fill-opacity:1;fill-rule:nonzero;stroke:none"
             d="m 0,0 -0.653,-10.135 -1.433,0.09 -4.227,8.472 -0.528,-8.166 -1.251,0.078 0.657,10.143 1.528,-0.099 4.127,-8.565 0.536,8.264 z" /></g><g
           transform="translate(405.2119,391.625)"
           id="g174"><path
             id="path176"
             style="fill:#007dc2;fill-opacity:1;fill-rule:nonzero;stroke:none"
             d="M 0,0 -0.746,10.126 0.501,10.216 1.243,0.084 Z" /></g><g
           transform="translate(416.667,403.7339)"
           id="g178"><path
             id="path180"
             style="fill:#007dc2;fill-opacity:1;fill-rule:nonzero;stroke:none"
             d="m 0,0 -1.194,-10.64 -1.355,-0.285 -5.417,9.227 1.357,0.288 4.445,-7.98 0.81,9.099 z" /></g><g
           transform="translate(422.5518,395.0186)"
           id="g182"><path
             id="path184"
             style="fill:#007dc2;fill-opacity:1;fill-rule:nonzero;stroke:none"
             d="M 0,0 -3.781,9.429 2.527,11.954 2.977,10.823 -2.166,8.76 -1,5.837 3.766,7.743 4.219,6.612 -0.541,4.702 0.744,1.495 5.98,3.593 6.398,2.56 Z" /></g><g
           transform="translate(433.3936,406.3569)"
           id="g186"><path
             id="path188"
             style="fill:#007dc2;fill-opacity:1;fill-rule:nonzero;stroke:none"
             d="M 0,0 C 1.094,0.649 1.309,1.485 0.665,2.516 0.051,3.495 -0.729,3.684 -1.666,3.095 L -4.369,1.4 -2.505,-1.57 Z m -0.649,-6.878 -5.39,8.603 3.678,2.313 C -0.619,5.086 0.723,4.85 1.676,3.339 2.297,2.406 2.373,1.471 1.898,0.543 2.645,0.762 3.299,0.408 3.873,-0.506 l 1.049,-1.498 c 0.266,-0.434 0.573,-0.619 0.903,-0.57 l 0.11,-0.172 -1.292,-0.81 c -0.325,0.276 -0.815,0.923 -1.491,1.936 -0.64,1.077 -1.441,1.321 -2.41,0.712 l -2.625,-1.648 2.295,-3.658 z" /></g><g
           transform="translate(439.2969,415.4194)"
           id="g190"><path
             id="path192"
             style="fill:#007dc2;fill-opacity:1;fill-rule:nonzero;stroke:none"
             d="M 0,0 C -0.994,-0.965 -1.126,-1.863 -0.395,-2.715 0.083,-3.228 0.647,-3.289 1.278,-2.89 l 2.418,1.334 c 1.297,0.683 2.416,0.52 3.354,-0.499 1.198,-1.391 0.957,-2.93 -0.717,-4.605 -0.956,-0.886 -1.855,-1.321 -2.697,-1.317 -0.89,0.014 -1.68,0.416 -2.369,1.208 l 0.855,0.784 c 1.027,-1.077 2.19,-1.064 3.49,0.041 1.155,1.107 1.371,2.071 0.662,2.89 C 5.767,-2.28 4.882,-2.29 3.604,-3.099 L 1.901,-4.04 c -1.205,-0.651 -2.22,-0.529 -3.041,0.37 -1.286,1.528 -1.201,3.009 0.246,4.441 1.739,1.605 3.362,1.65 4.854,0.122 L 3.075,0.075 C 2.157,0.977 1.134,0.961 0,0" /></g><g
           transform="translate(451.0566,414.5757)"
           id="g194"><path
             id="path196"
             style="fill:#007dc2;fill-opacity:1;fill-rule:nonzero;stroke:none"
             d="M 0,0 -7.82,6.492 -7.024,7.448 0.8,0.968 Z" /></g><g
           transform="translate(449.8535,430.5708)"
           id="g198"><path
             id="path200"
             style="fill:#007dc2;fill-opacity:1;fill-rule:nonzero;stroke:none"
             d="m 0,0 1.034,-0.649 -1.676,-2.667 7.582,-4.741 -0.691,-1.099 -7.576,4.745 -1.67,-2.655 -1.031,0.64 z" /></g><g
           transform="translate(461.3936,431.5845)"
           id="g202"><path
             id="path204"
             style="fill:#007dc2;fill-opacity:1;fill-rule:nonzero;stroke:none"
             d="m 0,0 -3.723,1.487 -7.011,-0.99 0.55,1.381 5.569,0.666 -3.582,4.315 0.551,1.376 4.386,-5.584 3.726,-1.494 z" /></g><g
           transform="translate(397.9463,473.8521)"
           id="g206"><path
             id="path208"
             style="fill:#007dc2;fill-opacity:1;fill-rule:nonzero;stroke:none"
             d="m 0,0 -0.197,-1.79 18.64,0.016 c 0,0 1.692,0.175 -0.024,2.089 L 1.186,0.335 C 1.186,0.335 0.133,0.457 0,0" /></g><g
           transform="translate(423.6904,446.9673)"
           id="g210"><path
             id="path212"
             style="fill:#007dc2;fill-opacity:1;fill-rule:nonzero;stroke:none"
             d="M 0,0 C 4.563,0.457 2.627,2.434 2.627,2.434 L -8.225,2.438 -8.395,1.304 C -7.725,0.342 -4.963,-0.502 0,0" /></g><g
           transform="translate(391.2813,446.4976)"
           id="g214"><path
             id="path216"
             style="fill:#007dc2;fill-opacity:1;fill-rule:nonzero;stroke:none"
             d="M 0,0 C 0,0 2.001,-0.71 5.753,1.843 5.987,2.048 6.28,2.191 6.3,3.121 6.138,3.813 5.621,4.056 5.262,4.103 c -1.01,0.063 -4.206,0.1 -4.206,0.1 0,0 -3.358,0.207 -3.427,-1.446 C -2.453,0.94 -2.197,0.584 0,0" /></g><g
           transform="translate(390.4189,441.7769)"
           id="g218"><path
             id="path220"
             style="fill:#007dc2;fill-opacity:1;fill-rule:nonzero;stroke:none"
             d="m 0,0 c -2.34,0.598 -4.185,-2.003 -4.185,-2.003 1.557,-2.14 3.465,-3.412 3.465,-3.412 2.995,2.602 2.995,3.349 2.995,3.349 0,0 0.381,1.253 -2.275,2.066" /></g><g
           transform="translate(403.3115,448.5552)"
           id="g222"><path
             id="path224"
             style="fill:#007dc2;fill-opacity:1;fill-rule:nonzero;stroke:none"
             d="m 0,0 c 0,0 0.133,2.436 -1.747,2.205 0,0 -1.715,0.206 -1.837,-1.516 -0.033,-1.634 -0.881,-2.715 -0.881,-2.715 l -3.109,-1.376 c 0,0 -1.137,-0.454 -0.811,-1.963 0.553,-1.15 2.053,-0.801 2.053,-0.801 0,0 4.165,0.588 6.047,2.289 z" /></g><g
           transform="translate(416.3652,437.2778)"
           id="g226"><path
             id="path228"
             style="fill:#007dc2;fill-opacity:1;fill-rule:nonzero;stroke:none"
             d="m 0,0 c 0,0 -3.427,0.369 -5.258,0.555 -2.305,0.303 -5.558,0.041 -6.783,1.787 0,0 -3.659,1.647 -4.392,-0.553 -0.691,-2.08 1.223,-3.641 3.528,-3.727 0.855,0.008 11.489,-0.954 11.489,-0.954 0,0 3.45,-0.377 3.704,1.288 C 2.034,0.082 0,0 0,0" /></g><g
           transform="translate(408.707,444.2729)"
           id="g230"><path
             id="path232"
             style="fill:#007dc2;fill-opacity:1;fill-rule:nonzero;stroke:none"
             d="m 0,0 c 1.399,-0.188 3.455,0.654 3.927,3.753 0.142,2.12 -2.81,2.344 -2.81,2.344 0,0 -2.925,0.325 -3.698,-2.557 C -3.185,0.453 -1.399,0.193 0,0" /></g><g
           transform="translate(397.7588,422.0239)"
           id="g234"><path
             id="path236"
             style="fill:#007dc2;fill-opacity:1;fill-rule:nonzero;stroke:none"
             d="m 0,0 c -0.305,0 -0.604,-0.153 -0.901,-0.452 -0.292,-0.303 -0.441,-0.814 -0.441,-1.528 0,-0.172 0.08,-0.367 0.248,-0.571 0.16,-0.201 0.413,-0.307 0.755,-0.307 0.351,0 0.657,0.157 0.919,0.468 0.268,0.314 0.399,0.732 0.399,1.251 0,0.359 -0.084,0.633 -0.25,0.837 C 0.562,-0.104 0.318,0 0,0" /></g><g
           transform="translate(420.458,418.2476)"
           id="g238"><path
             id="path240"
             style="fill:#007dc2;fill-opacity:1;fill-rule:nonzero;stroke:none"
             d="m 0,0 -1.337,2.42 c 11.853,6.528 19.216,18.979 19.216,32.492 0,20.446 -16.633,37.076 -37.078,37.076 -20.441,0 -37.069,-16.63 -37.069,-37.076 0,-13.367 7.244,-25.755 18.913,-32.324 l -1.362,-2.411 c -12.533,7.057 -20.314,20.372 -20.314,34.735 0,21.968 17.865,39.842 39.832,39.842 21.967,0 39.838,-17.874 39.838,-39.842 C 20.639,20.391 12.728,7.014 0,0 m -14.336,14.835 c 0,0 -2.248,0.184 -2.121,-1.14 0.119,-1.245 2.586,-1.321 2.586,-1.321 H -6.1 c 0,0 1.037,-0.01 1.051,-1.186 -0.107,-1.171 -2.892,-1.377 -2.892,-1.377 0,0 -5.603,-0.623 -7.85,0.054 0,0 -8.355,4.558 -6.509,7.198 0,0 0.042,1.799 -2.257,1.92 -1.822,0.1 -3.273,-0.386 -4.328,-1.866 0.944,-1.744 3.381,-3.174 4.398,-3.901 0,0 3.58,-2.352 4.668,-2.951 0,0 0.934,-0.494 0.074,-1.144 -0.348,-0.219 -1.611,0.258 -1.611,0.258 0,0 -4.222,1.191 -11.58,6.985 0,0 -10.811,9.763 -10.325,22.086 0,0 0.173,2.101 1.968,2.182 1.802,0.077 2.215,-2.182 2.215,-2.182 0.385,-10.63 3.074,-13.638 3.373,-13.96 0.007,-0.01 2.016,0.38 2.639,1.29 0,0 1.295,1.365 0.034,2.383 -2.658,2.15 -2.402,6.996 -2.402,6.996 0,0 1.77,0.59 2.545,0.841 0.034,0.013 0.042,0.025 0.075,0.035 0.753,0.122 1.701,0.167 3.093,0.122 l 7.27,-0.06 c 0,0 0.477,0.074 1.051,-0.84 h 3.671 c 0,0 1.217,0.409 1.071,2.139 -0.209,1.25 -1.637,1.644 -1.637,1.644 l -14.228,-0.01 c -0.037,0 -0.067,0.005 -0.102,0.005 -2.176,0 -3.383,0.674 -3.722,0.896 -0.907,0.701 -1.905,1.696 -1.666,2.508 0.477,1.868 2.583,2.592 3.904,1.654 l 1.343,-0.936 c 0,0 0.819,-0.923 3.598,-0.923 l 11.395,-0.018 c 0,0 1.127,0.054 1.109,1.434 -0.024,1.35 -1.406,1.337 -1.406,1.337 L -33.98,45 c 0,0 -1.434,0.015 -1.02,1.037 l 0.934,1.561 c 0.163,0.252 0.877,1.05 3.259,1.05 h 38.45 c 0,0 -0.596,3.88 -5.689,8.413 0,0 -3.963,3.873 -9.844,6.272 0,0 -2.352,0.922 -5.881,1.642 -3.19,0.822 -2.958,2.583 -2.958,2.583 0,0 0.083,1.478 2.605,1.162 1.134,-0.139 5.179,-0.5 10.83,-3.149 0,0 11.877,-5.703 15.355,-16.788 0,0 0.468,-1.478 0.919,-3.282 h -23.171 c 0,0 -1.853,0.017 -1.88,-1.643 -0.027,-1.584 1.41,-1.624 1.41,-1.624 L 9.391,42.157 c 0,0 1.272,-0.14 2.99,1.079 0,0 1.07,0.785 1.603,-0.581 0,0 0.787,-1.991 0.143,-3.801 l -24.221,-0.178 c 0,0 -1.636,-0.091 -1.65,-1.952 0.099,-1.87 1.857,-1.73 1.857,-1.73 l 20.003,0.072 -0.023,-0.013 c 0,0 2.284,0.185 3.548,-1.738 0.088,-0.351 0.118,-0.763 0.07,-1.263 -0.113,-1.102 -3.117,-2.239 -3.117,-2.239 0,0 -3.5,-1.487 -3.125,-3.138 0.187,-0.948 1.863,-2.023 1.863,-2.023 0,0 1.186,-1.099 -0.09,-2.708 -1.627,-1.449 -3.697,0.388 -3.697,0.388 0,0 -1.543,2.891 -4.375,2.977 -2.126,0 -3.031,-1.054 -3.031,-1.054 0,0 -1.055,-1.292 -3.734,-0.92 0,0 -2.598,0.729 -2.665,-0.719 -0.05,-0.741 0.848,-1.217 1.665,-1.351 0.817,-0.138 5.368,0.121 7.126,-0.314 1.773,-0.424 3.086,-0.71 4,-2.354 0.918,-2.062 0.073,-2.805 -0.681,-3.274 0,0 -1.993,-1.552 -6.193,-1.135 z M -4.873,3.274 H -8.584 L -8.991,1.97 c 0.442,0.152 0.776,0.256 1.003,0.314 0.224,0.064 0.459,0.086 0.708,0.086 0.685,0 1.255,-0.192 1.704,-0.565 0.444,-0.375 0.666,-0.949 0.666,-1.697 0,-0.588 -0.134,-1.124 -0.408,-1.596 -0.271,-0.48 -0.707,-0.898 -1.303,-1.241 -0.591,-0.345 -1.411,-0.525 -2.459,-0.525 -0.983,0 -1.72,0.187 -2.212,0.553 -0.489,0.366 -0.782,0.959 -0.897,1.773 l 2.382,0.263 v -0.032 c 0,-0.378 0.092,-0.661 0.281,-0.86 0.196,-0.198 0.456,-0.302 0.787,-0.302 0.417,0 0.766,0.18 1.053,0.528 0.282,0.352 0.428,0.769 0.428,1.254 v 0.024 c 0,0.682 -0.312,1.031 -0.935,1.031 -0.45,0 -0.837,-0.18 -1.166,-0.531 l -2.215,0.318 1.295,4.234 h 5.808 z m -9.832,-6.389 h -2.424 l 1.238,5.341 c -0.727,-0.421 -1.594,-0.755 -2.602,-0.98 l 0.436,1.919 c 1.287,0.524 2.352,1.183 3.202,1.969 h 2.049 z m -5.221,2.549 c -0.338,-0.832 -0.838,-1.491 -1.501,-1.967 -0.669,-0.481 -1.479,-0.717 -2.428,-0.717 -0.813,0 -1.475,0.162 -1.989,0.494 -0.514,0.321 -0.83,0.816 -0.943,1.466 l 2.32,0.208 c 0.093,-0.538 0.376,-0.811 0.834,-0.811 0.342,0 0.633,0.164 0.871,0.491 0.248,0.32 0.473,0.844 0.684,1.564 l -0.035,0.021 c -0.53,-0.414 -1.124,-0.622 -1.788,-0.622 -0.677,0 -1.247,0.226 -1.728,0.678 -0.473,0.448 -0.711,1.019 -0.711,1.71 0,0.818 0.326,1.561 0.971,2.208 0.648,0.656 1.531,0.977 2.646,0.977 1.015,0 1.827,-0.294 2.414,-0.874 0.589,-0.587 0.883,-1.371 0.883,-2.364 0,-0.804 -0.172,-1.627 -0.5,-2.462 m 3.063,61.904 c 0.474,-0.279 0.535,-0.977 0.535,-1.436 0,0 -0.026,-0.904 1.75,-1.185 1.842,-0.296 3.035,0.271 3.729,2.217 0,0 0.21,0.525 1.613,0.404 0,0 5.304,-0.404 9.679,-5.998 0,0 3.169,-3.69 1.522,-4.663 l -27.799,-0.19 c 0,0 -3.636,0.19 -2.649,1.902 1.951,3.383 4.395,6.163 7.366,7.685 0,0 3.205,1.865 4.254,1.264 M -39.881,15.801 c 0,0 -14.23,13.893 -5.744,32.224 0,0 5.934,14.3 21.437,19.759 0,0 1.022,0.389 1.418,-0.415 0.2,-0.718 -1.032,-1.27 -1.032,-1.27 0,0 -6.88,-3.703 -9.199,-6.038 0,0 -6.171,-5.374 -7.76,-8.321 0,0 -1.898,-3.083 -2.012,-3.988 0,-0.672 0.557,-1.584 1.962,-1.042 1.38,0.528 2.118,1.717 2.312,2.099 0.206,0.384 5.603,8.275 12.534,13.233 0,0 2.872,2.243 5.074,1.919 1.055,-0.333 0.52,-1.476 -0.078,-1.711 0,0 -1.324,-0.452 -3.148,-1.733 -3.686,-3.033 -6.244,-6.244 -8.863,-9.862 0,0 -3.172,-4.982 -6.131,-6.044 0,0 -3.458,-1.233 -4.481,-2.327 -0.881,-0.937 -1.964,-1.9 -1.763,-6.401 0,0 -0.299,-8.738 5.908,-17.112 0,0 4.191,-6.171 10.429,-10.54 0.559,-0.567 0.504,-0.613 0.106,-0.5 0,0 -5.74,1.887 -10.969,8.07 m -12.404,29.248 c 0,0 0,1.791 1.373,4.71 0.082,0.235 3.486,7.253 7.501,10.966 0,0 3.926,4.172 10.179,6.027 0,0 1.034,0.413 1.35,-0.177 0.485,-0.913 -0.3,-1.108 -1.163,-1.628 0,0 -4.57,-1.936 -10.951,-9.82 0,0 -2.885,-3.741 -4.637,-8.227 -0.078,-0.187 -0.164,-0.38 -0.24,-0.622 -0.943,-2.763 -2.537,-2.203 -2.537,-2.203 v -0.004 c -0.408,0.106 -0.82,0.367 -0.875,0.978 m 0.791,-4.458 c 1.053,-0.135 0.974,-0.99 0.974,-0.99 -1.892,-9.315 1.95,-16.386 1.95,-16.386 2.98,-6.878 9.17,-13.731 9.17,-13.731 0.105,-0.101 0.167,-0.399 -0.618,-0.101 -6.232,3.805 -10.733,13.324 -10.733,13.324 0,0 -4.129,8.02 -2.052,17.161 0.065,0.181 0.303,0.8 1.309,0.723 m 21.935,-43.706 h -2.415 l 1.238,5.341 c -0.733,-0.421 -1.602,-0.755 -2.608,-0.98 l 0.441,1.919 c 1.278,0.524 2.347,1.183 3.184,1.969 h 2.065 z m 9.965,79.913 c -23.22,0 -42.034,-18.814 -42.034,-42.034 0,-23.213 18.814,-42.036 42.034,-42.036 23.22,0 42.042,18.823 42.042,42.036 0,23.22 -18.822,42.034 -42.042,42.034" /></g></g></g></g></svg>